<svg width="70" height="70" viewBox="0 0 70 70" fill="none" xmlns="http://www.w3.org/2000/svg">
<path d="M6.36364 0V21.3043H0V48.6957H6.36364V57.8261H15.9091V63.913H54.0909V57.8261H63.6364V48.6957H70V21.3043H63.6364V0H54.0909V6.08696H47.7273V12.1739H22.2727V6.08696H15.9091V0H6.36364ZM63.6364 57.8261V63.913H70V57.8261H63.6364ZM54.0909 63.913V70H60.4545V63.913H54.0909ZM15.9091 63.913H9.54545V70H15.9091V63.913ZM6.36364 57.8261H0V63.913H6.36364V57.8261ZM19.0909 30.4348H25.4545V36.5217H19.0909V30.4348ZM44.5455 30.4348H50.9091V36.5217H44.5455V30.4348ZM28.6364 42.6087H41.3636V48.6957H38.1818V57.8261H31.8182V48.6957H28.6364V42.6087Z" fill="black"/>
</svg>
